<?xml version="1.0" encoding="utf-8"?>
<!-- Generator: Adobe Illustrator 20.0.0, SVG Export Plug-In . SVG Version: 6.00 Build 0)  -->
<svg version="1.1" id="Layer_1" xmlns="http://www.w3.org/2000/svg" xmlns:xlink="http://www.w3.org/1999/xlink" x="0px" y="0px"
	 viewBox="0 0 283 63" style="enable-background:new 0 0 283 63;" xml:space="preserve">
<style type="text/css">
	.st0{fill:#FF2B06;}
</style>
<title>TEDx_logo_ACCD_WHITE</title>
<path class="st0" d="M3.6,55.4l-2.7-3.9h2.6L5,53.7l1.4-2.2H9l-2.7,3.9l3.1,4.4H6.6l-1.7-2.6l-1.7,2.6H0.7L3.6,55.4z"/>
<path d="M20.1,54.9H12v-1.7h8.1V54.9z M20.1,58.3H12v-1.7h8.1V58.3z"/>
<path d="M26.3,50.2H24v-1.9h2.3V50.2z M24,51.5h2.3v8.3H24V51.5z"/>
<path d="M27.8,51.5h2.2v1.2h0c0.5-0.9,1.5-1.4,2.5-1.4c2.4,0,3,1.4,3,3.4v5.1h-2.3v-4.7c0-1.4-0.4-2.1-1.5-2.1S30,53.8,30,55.4v4.4
	h-2.3L27.8,51.5z"/>
<path d="M42.9,58.8L42.9,58.8c-0.6,0.9-1.5,1.3-2.6,1.3c-2.5,0-3.7-2.2-3.7-4.4c0-2.3,1.2-4.3,3.7-4.3c1,0,1.9,0.4,2.5,1.2l0,0v-4.2
	h2.3v11.5h-2.2L42.9,58.8z M40.9,53c-1.5,0-2,1.3-2,2.6s0.6,2.7,2,2.7c1.4,0,1.9-1.3,1.9-2.7C42.9,54.3,42.4,53,40.9,53L40.9,53z"/>
<path d="M48.3,56.2c0.1,1.4,0.8,2.1,2.1,2.1c1.3,0,1.7-0.6,1.8-1.1h2c-0.6,1.9-2,2.8-3.9,2.8c-2.6,0-4.3-1.8-4.3-4.4
	c0-2.6,1.7-4.4,4.3-4.4c2.5,0,4.2,2.4,4,4.9L48.3,56.2z M52.1,54.8c-0.2-1.2-0.7-1.8-1.8-1.8c-1-0.1-1.9,0.7-1.9,1.7
	c0,0,0,0.1,0,0.1H52.1z"/>
<path d="M55.4,51.5h2.2v1h0c0.5-0.9,1.5-1.3,2.5-1.3c2.6,0,3.8,2.1,3.8,4.5S62.6,60,60.2,60c-1,0-1.9-0.5-2.5-1.3h0v3.9h-2.3
	L55.4,51.5z M61.6,55.7c0-1.3-0.5-2.7-2-2.7c-1.4,0-2,1.3-2,2.7s0.5,2.6,2,2.6C61.1,58.3,61.6,57,61.6,55.7L61.6,55.7z"/>
<path d="M66.8,56.2c0.1,1.4,0.8,2.1,2.1,2.1c1.3,0,1.7-0.6,1.8-1.1h2c-0.6,1.9-2,2.8-3.9,2.8c-2.6,0-4.3-1.8-4.3-4.4
	c0-2.6,1.7-4.4,4.3-4.4s4.2,2.4,4,4.9L66.8,56.2z M70.5,54.8c-0.2-1.2-0.7-1.8-1.8-1.8c-1-0.1-1.9,0.7-1.9,1.7c0,0,0,0.1,0,0.1H70.5
	z"/>
<path d="M73.8,51.5h2.2v1.2h0c0.5-0.9,1.5-1.4,2.5-1.4c2.4,0,3,1.4,3,3.4v5.1h-2.3v-4.7c0-1.4-0.4-2.1-1.5-2.1S76,53.8,76,55.4v4.4
	h-2.3L73.8,51.5z"/>
<path d="M88.9,58.8L88.9,58.8c-0.6,0.9-1.5,1.3-2.6,1.3c-2.5,0-3.7-2.2-3.7-4.4c0-2.3,1.2-4.3,3.7-4.3c1,0,1.9,0.4,2.5,1.2l0,0v-4.2
	h2.3v11.5h-2.2V58.8z M86.9,53c-1.5,0-2,1.3-2,2.6s0.6,2.7,2,2.7s1.9-1.3,1.9-2.7C88.9,54.3,88.4,53,86.9,53L86.9,53z"/>
<path d="M94.4,56.2c0.1,1.4,0.8,2.1,2.1,2.1c1.3,0,1.7-0.6,1.8-1.1h2c-0.6,1.9-2,2.8-3.9,2.8c-2.6,0-4.3-1.8-4.3-4.4
	c0-2.6,1.7-4.4,4.3-4.4s4.2,2.4,4,4.9L94.4,56.2z M98.1,54.8c-0.2-1.2-0.7-1.8-1.8-1.8c-1-0.1-1.9,0.7-1.9,1.7c0,0,0,0.1,0,0.1H98.1
	z"/>
<path d="M101.4,51.5h2.2v1.2h0c0.5-0.9,1.5-1.4,2.5-1.4c2.4,0,3,1.4,3,3.4v5.1h-2.2v-4.7c0-1.4-0.4-2.1-1.5-2.1s-1.8,0.7-1.8,2.4
	v4.4h-2.3V51.5z"/>
<path d="M113.5,51.5h1.7V53h-1.7v4.1c0,0.8,0.2,1,1,1l0.7-0.1v1.8c-0.4,0.1-0.9,0.1-1.3,0.1c-1.4,0-2.6-0.3-2.6-2V53h-1.4v-1.5h1.4
	V49h2.3V51.5z"/>
<path d="M116,48.3h2.3v11.5H116V48.3z"/>
<path d="M123.8,60.9c-0.5,1.3-1.3,1.9-2.9,1.9l-1.4-0.1v-1.9c0.4,0,0.9,0.1,1.3,0.1c0.8-0.1,1-0.9,0.8-1.6l-2.9-7.8h2.5l1.9,5.7h0
	l1.8-5.7h2.3L123.8,60.9z"/>
<path d="M135.9,51.3c2.6,0,4.3,1.7,4.3,4.4c0,2.7-1.7,4.4-4.3,4.4s-4.3-1.7-4.3-4.4C131.6,53.1,133.3,51.3,135.9,51.3z M135.9,58.3
	c1.6,0,2-1.3,2-2.6s-0.5-2.7-2-2.7s-2,1.3-2,2.7S134.4,58.3,135.9,58.3z"/>
<path d="M141.1,51.5h2.2v1.6h0c0.5-1.1,1.5-1.7,2.6-1.8l0.5,0.1v2.1l-0.8-0.1c-1.7,0-2.2,1.2-2.2,2.7v3.7h-2.3V51.5z"/>
<path d="M155,59.3c0,1.4-0.5,3.7-4.3,3.7c-1.6,0-3.5-0.8-3.6-2.7h2.3c0.2,0.9,0.9,1.2,1.7,1.2s1.8-0.9,1.8-2.1v-1.1h0
	c-0.5,0.8-1.5,1.3-2.5,1.3c-2.5,0-3.5-1.9-3.5-4.2c0-2.3,1.2-4.1,3.6-4.1c1.1,0,1.9,0.4,2.5,1.3h0v-1.1h2.2L155,59.3z M152.8,55.6
	c0-1.3-0.5-2.6-1.9-2.6s-1.8,1.1-1.8,2.3s0.4,2.5,1.8,2.5S152.8,56.7,152.8,55.6z"/>
<path d="M156.1,54.1c0.1-2.1,2.1-2.8,3.9-2.8c1.8,0,3.6,0.4,3.6,2.3V58c0,0.8,0.1,1.5,0.3,1.8h-2.3c-0.1-0.3-0.1-0.5-0.1-0.8
	c-0.8,0.7-1.8,1.1-2.8,1c-1.6,0-2.8-0.8-2.8-2.5c0-1.7,1.4-2.3,2.8-2.5c1.4-0.2,2.7-0.1,2.7-1.1c0-0.9-0.7-1.1-1.5-1.1
	c-0.8,0-1.4,0.4-1.5,1.3L156.1,54.1z M161.4,55.8c-0.4,0.3-1.2,0.4-1.9,0.5c-0.7,0.1-1.3,0.4-1.3,1.2c0,0.8,0.6,1,1.4,1
	c1.8,0,1.8-1.4,1.8-1.9V55.8z"/>
<path d="M165.1,51.5h2.2v1.2h0c0.5-0.9,1.5-1.4,2.5-1.4c2.4,0,3,1.4,3,3.4v5.1h-2.3v-4.7c0-1.4-0.4-2.1-1.5-2.1
	c-1.1,0-1.8,0.7-1.8,2.4v4.4h-2.3L165.1,51.5z"/>
<path d="M176.3,50.2h-2.3v-1.9h2.3V50.2z M174.1,51.5h2.3v8.3h-2.3V51.5z"/>
<path d="M177.3,58.1l4.3-4.9h-4v-1.7h7v1.7l-4.3,4.9h4.6v1.7h-7.6V58.1z"/>
<path d="M187.7,56.2c0.1,1.4,0.8,2.1,2.1,2.1s1.7-0.6,1.8-1.1h2c-0.6,1.9-2,2.8-3.9,2.8c-2.6,0-4.2-1.8-4.2-4.4
	c0-2.6,1.7-4.4,4.2-4.4c2.5,0,4.2,2.4,4,4.9L187.7,56.2z M191.4,54.8c-0.2-1.2-0.7-1.8-1.8-1.8c-1-0.1-1.9,0.7-1.9,1.7
	c0,0,0,0.1,0,0.1H191.4z"/>
<path d="M200.7,58.8L200.7,58.8c-0.6,0.9-1.5,1.3-2.6,1.3c-2.5,0-3.7-2.2-3.7-4.4c0-2.3,1.2-4.3,3.7-4.3c1,0,1.9,0.4,2.5,1.2l0,0
	v-4.2h2.3v11.5h-2.2L200.7,58.8z M198.7,53c-1.5,0-2,1.3-2,2.6s0.6,2.7,2,2.7c1.4,0,1.9-1.3,1.9-2.7C200.6,54.3,200.1,53,198.7,53
	L198.7,53z"/>
<path d="M211.1,50.5h-3.4v-2.1h9.4v2.1h-3.4v9.4h-2.5V50.5z"/>
<path d="M218.1,48.3h8.6v2.1h-6.1v2.5h5.6v1.9h-5.6v2.8h6.2v2.1h-8.7V48.3z"/>
<path d="M227.9,48.3h4.9c3,0,5.2,1.9,5.2,5.7s-1.7,5.8-5.2,5.8h-4.9V48.3z M230.4,57.7h2.2c1.4,0,2.9-0.9,2.9-3.4
	c0-2.5-0.8-3.8-3.3-3.8h-1.8L230.4,57.7z"/>
<path d="M245.3,56.2c0.1,1.4,0.8,2.1,2.1,2.1s1.7-0.6,1.8-1.1h2c-0.6,1.9-2,2.8-3.9,2.8c-2.6,0-4.2-1.8-4.2-4.4
	c0-2.6,1.7-4.4,4.2-4.4c2.5,0,4.2,2.4,4,4.9L245.3,56.2z M249,54.8c-0.2-1.2-0.7-1.8-1.8-1.8c-1-0.1-1.9,0.7-1.9,1.7
	c0,0,0,0.1,0,0.1H249z"/>
<path d="M256.6,59.8H254l-2.9-8.3h2.4l1.8,5.7h0l1.7-5.7h2.3L256.6,59.8z"/>
<path d="M261.5,56.2c0.1,1.4,0.8,2.1,2.1,2.1s1.7-0.6,1.8-1.1h2c-0.6,1.9-2,2.8-3.9,2.8c-2.6,0-4.2-1.8-4.2-4.4
	c0-2.6,1.7-4.4,4.2-4.4s4.2,2.4,4,4.9L261.5,56.2z M265.3,54.8c-0.2-1.2-0.7-1.8-1.8-1.8c-1-0.1-1.9,0.7-1.9,1.7c0,0,0,0.1,0,0.1
	H265.3z"/>
<path d="M268.6,51.5h2.2v1.2h0c0.5-0.9,1.5-1.4,2.5-1.4c2.4,0,3,1.4,3,3.4v5.1h-2.3v-4.7c0-1.4-0.4-2.1-1.5-2.1s-1.8,0.7-1.8,2.4
	v4.4h-2.3L268.6,51.5z"/>
<path d="M280.7,51.5h1.7V53h-1.7v4.1c0,0.8,0.2,1,1,1l0.7-0.1v1.8c-0.4,0.1-0.9,0.1-1.3,0.1c-1.4,0-2.6-0.3-2.6-2V53H277v-1.5h1.4
	V49h2.3V51.5z"/>
<path class="st0" d="M10.5,10.4H-0.2V0.6H33v9.8H22.3v28.4H10.5V10.4z"/>
<path class="st0" d="M34.8,0.6H67v9.8H46.6v4.8H67v9.1H46.6V29H67v9.8H34.8V0.6z"/>
<path class="st0" d="M69,0.6h19.3c12.7,0,17.2,9.4,17.2,19.1c0,11.7-6.2,19.2-19.5,19.2H69V0.6z M80.7,29h4.6c7.3,0,8.4-6,8.4-9.5
	c0-2.4-0.8-9.1-9.3-9.1h-3.7V29z"/>
<path class="st0" d="M122.4,24.1l-3.6-6l-3.5,6h-8.6l8.2-12l-7.9-11.5h8.6l3.2,5.7l3.3-5.7h8.6l-7.9,11.5l8.2,12H122.4z"/>
<path d="M156.1,0.9l14.8,37.9h-5.6l-4.1-11.4h-16l-4.3,11.4h-5.1l14.7-37.9L156.1,0.9z M159.6,23.1l-6.3-17.7h-0.1l-6.4,17.7H159.6z
	"/>
<path d="M197.5,6.2c-2-1.4-4.4-2.1-6.9-2c-2-0.1-4,0.4-5.8,1.3c-1.6,0.8-2.9,2-4,3.4c-1.1,1.5-1.9,3.1-2.3,4.9
	c-0.5,1.9-0.8,3.8-0.8,5.7c0,2.1,0.2,4.1,0.8,6.1c0.4,1.8,1.2,3.5,2.3,5.1c1,1.4,2.4,2.6,4,3.4c1.8,0.9,3.8,1.3,5.8,1.3
	c1.5,0,3-0.3,4.4-0.8c1.3-0.5,2.4-1.3,3.4-2.3c1-1,1.7-2.2,2.2-3.5c0.5-1.4,0.9-2.8,0.9-4.3h5.1c-0.5,4.8-2.2,8.5-4.9,11.2
	c-2.8,2.7-6.6,4-11.4,4c-2.6,0.1-5.3-0.5-7.7-1.5c-2.1-0.9-4-2.4-5.5-4.2c-1.5-1.8-2.6-4-3.2-6.2c-0.7-2.5-1.1-5.1-1.1-7.7
	c0-2.6,0.4-5.3,1.2-7.8c0.7-2.3,1.9-4.5,3.4-6.4c1.5-1.8,3.5-3.3,5.6-4.3c2.4-1.1,5.1-1.6,7.7-1.6c1.9,0,3.8,0.3,5.6,0.8
	c1.7,0.5,3.3,1.3,4.7,2.3c1.4,1,2.6,2.4,3.4,3.9c1,1.6,1.6,3.5,1.8,5.3h-5.1C200.7,9.6,199.4,7.6,197.5,6.2z"/>
<path d="M235.8,6.2c-2-1.4-4.4-2.1-6.9-2c-2-0.1-4,0.4-5.8,1.3c-1.6,0.8-2.9,2-4,3.4c-1.1,1.5-1.9,3.1-2.3,4.9
	c-0.5,1.9-0.8,3.8-0.8,5.7c0,2.1,0.2,4.1,0.8,6.1c0.4,1.8,1.2,3.5,2.3,5.1c1,1.4,2.4,2.6,4,3.4c1.8,0.9,3.8,1.3,5.8,1.3
	c1.5,0,3-0.3,4.4-0.8c1.3-0.5,2.4-1.3,3.4-2.3c1-1,1.7-2.2,2.2-3.5c0.5-1.4,0.9-2.8,0.9-4.3h5.1c-0.5,4.8-2.2,8.5-4.9,11.2
	c-2.8,2.7-6.6,4-11.4,4c-2.6,0.1-5.3-0.5-7.7-1.5c-2.1-0.9-4-2.4-5.5-4.2c-1.5-1.8-2.6-4-3.2-6.2c-0.7-2.5-1.1-5.1-1.1-7.7
	c0-2.6,0.4-5.3,1.2-7.8c0.7-2.3,1.9-4.5,3.4-6.4c1.5-1.8,3.5-3.3,5.6-4.3c2.4-1.1,5.1-1.6,7.7-1.6c1.9,0,3.8,0.3,5.6,0.8
	c1.7,0.5,3.3,1.3,4.7,2.3c1.4,1,2.6,2.4,3.4,3.9c1,1.6,1.6,3.5,1.8,5.3h-5.1C239,9.6,237.7,7.6,235.8,6.2z"/>
<path d="M264.2,0.9c5.8,0,10.3,1.5,13.5,4.4s4.7,7.5,4.7,13.6c0,2.9-0.3,5.7-1,8.4c-0.6,2.3-1.7,4.4-3.3,6.2
	c-1.5,1.7-3.5,3.1-5.7,3.9c-2.3,0.9-5,1.3-8.2,1.3h-13V0.9H264.2z M264.6,34.5l2.1-0.1c0.9-0.1,1.8-0.3,2.7-0.6c1-0.4,2-0.8,2.9-1.4
	c1-0.7,1.9-1.6,2.5-2.6c0.8-1.3,1.4-2.7,1.8-4.1c0.5-1.9,0.8-3.9,0.7-6c0-2-0.2-4.1-0.6-6.1c-0.4-1.7-1.1-3.2-2.2-4.5
	c-1-1.3-2.4-2.3-3.9-2.9c-1.6-0.6-3.6-1-5.9-1h-8.6v29.4L264.6,34.5z"/>
</svg>
